<?xml version="1.0" encoding="utf-8"?>
<!-- Generator: Adobe Illustrator 23.0.0, SVG Export Plug-In . SVG Version: 6.00 Build 0)  -->
<svg version="1.1" id="Layer_1" xmlns="http://www.w3.org/2000/svg" xmlns:xlink="http://www.w3.org/1999/xlink" x="0px" y="0px"
	 viewBox="0 0 48 48" style="enable-background:new 0 0 48 48;" xml:space="preserve">
<g>
	<path d="M13.4,40.8c0.5,0,0.9-0.4,0.9-0.9V25.8c0-0.5-0.4-0.9-0.9-0.9c-0.9,0-1.8,0.2-2.6,0.5v-3.1c0-3.5,1.4-6.9,3.9-9.4
		C17.1,10.4,20.5,9,24,9c7.3,0,13.2,5.9,13.2,13.2v3.1c-0.8-0.3-1.7-0.5-2.6-0.5c-0.5,0-0.9,0.4-0.9,0.9v14.1c0,0.5,0.4,0.9,0.9,0.9
		c4.4,0,7.9-3.6,7.9-7.9c0-2.7-1.4-5.2-3.5-6.6v-4c0-8.3-6.7-15-15-15c-4,0-7.8,1.6-10.6,4.4C10.5,14.5,9,18.2,9,22.2v4
		c-2.1,1.4-3.5,3.9-3.5,6.6C5.5,37.2,9,40.8,13.4,40.8z M37.2,38.4c-0.5,0.3-1.1,0.5-1.8,0.5V26.7c0.6,0.1,1.2,0.3,1.8,0.5V38.4z
		 M39,28.5c1.1,1.1,1.8,2.6,1.8,4.3c0,1.7-0.7,3.2-1.8,4.3V28.5z M10.8,27.3c0.5-0.3,1.1-0.5,1.8-0.5V39c-0.6-0.1-1.2-0.3-1.8-0.5
		V27.3z M9,28.5v8.6c-1.1-1.1-1.8-2.6-1.8-4.3C7.2,31.2,7.9,29.6,9,28.5z"/>
</g>
</svg>
