<?xml version="1.0" encoding="utf-8"?>
<!-- Generator: Adobe Illustrator 23.0.0, SVG Export Plug-In . SVG Version: 6.00 Build 0)  -->
<svg version="1.1" id="Layer_1" xmlns="http://www.w3.org/2000/svg" xmlns:xlink="http://www.w3.org/1999/xlink" x="0px" y="0px"
	 viewBox="0 0 30 48" style="enable-background:new 0 0 30 48;" xml:space="preserve">
<g>
	<path d="M6.3,26.4l7.9,14.9l0,0l0,0l0.1,0.1c0.1,0.3,0.4,0.4,0.7,0.4s0.5-0.2,0.7-0.4l0.1-0.1l0,0l0,0l7.9-14.9
		c1.5-2.8,1.3-6.1-0.5-8.6L21,14.6h2.6c0.4,0,0.8-0.3,0.8-0.8V9.9c0-2.1-1.7-3.8-3.8-3.8h-11c-2.1,0-3.8,1.7-3.8,3.8v3.9
		c0,0.4,0.3,0.8,0.8,0.8H9l-2.2,3.2C5.1,20.3,4.9,23.6,6.3,26.4z M15,27.4c-1.1,0-2.1-0.9-2.1-2.1c0-1.2,0.9-2.1,2.1-2.1
		s2.1,0.9,2.1,2.1C17.1,26.5,16.1,27.4,15,27.4z M7.3,9.9c0-1.3,1-2.3,2.3-2.3h11c1.3,0,2.3,1,2.3,2.3V13H7.3V9.9z M8.1,18.6
		l2.8-4.1h8.3l2.8,4.1c1.4,2.1,1.6,4.8,0.4,7.1L15.8,38l0.1-9.2c1.6-0.4,2.8-1.8,2.8-3.5c0-2-1.6-3.6-3.6-3.6s-3.6,1.6-3.6,3.6
		c0,1.8,1.3,3.2,2.9,3.5l-0.1,9.2L7.7,25.7C6.5,23.4,6.7,20.7,8.1,18.6z"/>
</g>
</svg>
