<?xml version="1.0" encoding="utf-8"?>
<!-- Generator: Adobe Illustrator 23.0.0, SVG Export Plug-In . SVG Version: 6.00 Build 0)  -->
<svg version="1.1" id="Layer_1" xmlns="http://www.w3.org/2000/svg" xmlns:xlink="http://www.w3.org/1999/xlink" x="0px" y="0px"
	 viewBox="0 0 243.1 124.6" style="enable-background:new 0 0 243.1 124.6;" xml:space="preserve">
<style type="text/css">
	.st0{fill:#E24B4B;}
</style>
<title>san francisco</title>
<path class="st0" d="M55,16.2h-5.3c-0.6,0-1-0.4-1-1s0.4-1,1-1H55c0.6,0,1,0.4,1,1S55.5,16.2,55,16.2z"/>
<path class="st0" d="M55,35h-5.3c-0.6,0-1-0.4-1-1s0.4-1,1-1H55c0.6,0,1,0.4,1,1S55.5,35,55,35z"/>
<path class="st0" d="M55,53.8h-5.3c-0.6,0-1-0.4-1-1s0.4-1,1-1H55c0.6,0,1,0.4,1,1S55.5,53.8,55,53.8z"/>
<path class="st0" d="M78.3,16.2H73c-0.6,0-1-0.4-1-1s0.4-1,1-1h5.2c0.6,0,1,0.4,1,1S78.9,16.2,78.3,16.2L78.3,16.2z"/>
<path class="st0" d="M78.3,35H73c-0.6,0-1-0.4-1-1s0.4-1,1-1h5.2c0.6,0,1,0.4,1,1S78.9,35,78.3,35L78.3,35z"/>
<path class="st0" d="M78.3,53.8H73c-0.6,0-1-0.4-1-1s0.4-1,1-1h5.2c0.6,0,1,0.4,1,1S78.9,53.8,78.3,53.8L78.3,53.8z"/>
<path class="st0" d="M55,82.5h-5.3c-0.6,0-1-0.4-1-1V12.1c0-2,1.6-3.6,3.6-3.6s3.6,1.6,3.6,3.6l0,0v69.5
	C55.9,82.1,55.5,82.5,55,82.5z M50.7,80.5H54V12.1c0-0.9-0.7-1.6-1.6-1.6c-0.9,0-1.6,0.7-1.6,1.6l0,0v68.4H50.7z"/>
<path class="st0" d="M55.6,95.1h-6.5c-1.3,0-2.4-1.1-2.4-2.4v-6.1c0-0.6,0.4-1,1-1H57c0.6,0,1,0.4,1,1v6.1
	C58,94,56.9,95.1,55.6,95.1z M48.6,87.6v5.1c0,0.2,0.2,0.4,0.4,0.4h6.5c0.2,0,0.4-0.2,0.4-0.4v-5L48.6,87.6z"/>
<path class="st0" d="M57,114.2c-0.6,0-1-0.4-1-1v-5.3c0-0.2-0.2-0.4-0.4-0.4h-6.5c-0.2,0-0.4,0.2-0.4,0.4v5.3c0,0.6-0.4,1-1,1
	s-1-0.4-1-1v-5.3c0-1.3,1.1-2.4,2.4-2.4h6.5c1.3,0,2.4,1.1,2.4,2.4v5.3C58,113.8,57.6,114.2,57,114.2z"/>
<path class="st0" d="M54.7,107.5h-4.8c-0.6,0-1-0.4-1-1V94.1c0-0.6,0.4-1,1-1h4.8c0.6,0,1,0.4,1,1v12.4
	C55.7,107,55.3,107.5,54.7,107.5L54.7,107.5z M50.9,105.5h2.8V95.1h-2.8V105.5z"/>
<path class="st0" d="M78.9,95.1h-6.5c-1.3,0-2.4-1.1-2.4-2.4v-6.1c0-0.6,0.4-1,1-1h9.4c0.6,0,1,0.4,1,1v6.1
	C81.4,94,80.3,95.1,78.9,95.1L78.9,95.1z M71.9,87.6v5.1c0,0.2,0.2,0.4,0.4,0.4h6.5c0.2,0,0.4-0.2,0.4-0.4v-5L71.9,87.6z"/>
<path class="st0" d="M80.4,114.2c-0.6,0-1-0.4-1-1v-5.3c0-0.2-0.2-0.4-0.4-0.4h-6.5c-0.2,0-0.4,0.2-0.4,0.4v5.3c0,0.6-0.4,1-1,1
	s-1-0.4-1-1v-5.3c0-1.3,1.1-2.4,2.4-2.4H79c1.3,0,2.4,1.1,2.4,2.4v5.3C81.4,113.8,80.9,114.2,80.4,114.2z"/>
<path class="st0" d="M78.1,107.5h-4.8c-0.6,0-1-0.4-1-1V94.1c0-0.6,0.4-1,1-1h4.8c0.6,0,1,0.4,1,1v12.4
	C79.1,107,78.6,107.5,78.1,107.5L78.1,107.5z M74.3,105.5h2.8V95.1h-2.8V105.5z"/>
<path class="st0" d="M78.3,82.5H73c-0.6,0-1-0.4-1-1V12.1c-0.1-2,1.4-3.7,3.4-3.8s3.7,1.4,3.8,3.4c0,0.1,0,0.3,0,0.4v69.5
	C79.3,82.1,78.9,82.5,78.3,82.5z M74.1,80.5h3.2V12.1c0.1-0.9-0.6-1.7-1.5-1.8s-1.7,0.6-1.8,1.5c0,0.1,0,0.2,0,0.3v68.4H74.1z"/>
<path class="st0" d="M73.1,24.5c-0.2,0-0.4-0.1-0.6-0.2c-2.2-1.7-4.8-2.7-7.6-2.7h-1.7c-2.8,0-5.4,1-7.6,2.7
	c-0.4,0.3-1.1,0.3-1.4-0.2c-0.1-0.2-0.2-0.4-0.2-0.6v-8.3c0-0.6,0.4-1,1-1h18.1c0.6,0,1,0.4,1,1v8.3C74.1,24,73.6,24.5,73.1,24.5z
	 M63.2,19.5h1.7c2.5,0,5,0.7,7.2,2v-5.4H56v5.4C58.1,20.3,60.6,19.6,63.2,19.5z"/>
<path class="st0" d="M73.1,43.3c-0.2,0-0.4-0.1-0.6-0.2c-2.2-1.7-4.8-2.7-7.6-2.7h-1.7c-2.8,0-5.4,1-7.6,2.7
	c-0.4,0.3-1.1,0.3-1.4-0.2c-0.1-0.2-0.2-0.4-0.2-0.6V34c0-0.6,0.4-1,1-1h18.1c0.6,0,1,0.4,1,1v8.3C74.1,42.9,73.6,43.3,73.1,43.3
	L73.1,43.3z M63.2,38.4h1.7c2.5,0,5,0.7,7.2,2V35H56v5.4C58.1,39.1,60.6,38.4,63.2,38.4z"/>
<path class="st0" d="M73.1,62.2c-0.2,0-0.4-0.1-0.6-0.2c-2.2-1.7-4.8-2.7-7.6-2.7h-1.7c-2.8,0-5.4,1-7.6,2.7
	c-0.4,0.3-1.1,0.3-1.4-0.2c-0.1-0.2-0.2-0.4-0.2-0.6v-8.3c0-0.6,0.4-1,1-1h18.1c0.6,0,1,0.4,1,1v8.3C74.1,61.7,73.6,62.2,73.1,62.2z
	 M63.2,57.2h1.7c2.5,0,5,0.7,7.2,2v-5.4H56v5.4C58.1,58,60.6,57.3,63.2,57.2L63.2,57.2z"/>
<path class="st0" d="M55,16.2h-5.3c-0.6,0-1-0.4-1-1s0.4-1,1-1H55c0.6,0,1,0.4,1,1S55.5,16.2,55,16.2z"/>
<path class="st0" d="M55,35h-5.3c-0.6,0-1-0.4-1-1s0.4-1,1-1H55c0.6,0,1,0.4,1,1S55.5,35,55,35z"/>
<path class="st0" d="M55,53.8h-5.3c-0.6,0-1-0.4-1-1s0.4-1,1-1H55c0.6,0,1,0.4,1,1S55.5,53.8,55,53.8z"/>
<path class="st0" d="M78.3,16.2H73c-0.6,0-1-0.4-1-1s0.4-1,1-1h5.2c0.6,0,1,0.4,1,1S78.9,16.2,78.3,16.2L78.3,16.2z"/>
<path class="st0" d="M78.3,35H73c-0.6,0-1-0.4-1-1s0.4-1,1-1h5.2c0.6,0,1,0.4,1,1S78.9,35,78.3,35L78.3,35z"/>
<path class="st0" d="M78.3,53.8H73c-0.6,0-1-0.4-1-1s0.4-1,1-1h5.2c0.6,0,1,0.4,1,1S78.9,53.8,78.3,53.8L78.3,53.8z"/>
<path class="st0" d="M121.8,82.5H6.2c-0.6,0-1-0.4-1-1s0.4-1,1-1h115.5c0.6,0,1,0.4,1,1S122.3,82.5,121.8,82.5z"/>
<path class="st0" d="M121.8,87.6H6.2c-0.6,0-1-0.4-1-1s0.4-1,1-1h115.5c0.6,0,1,0.4,1,1S122.3,87.6,121.8,87.6z"/>
<path class="st0" d="M6.2,74.6c-0.6,0-1-0.4-1-1c0-0.4,0.2-0.8,0.6-0.9c26.5-12.1,42.9-34.1,42.9-57.5c0-0.6,0.4-1,1-1s1,0.4,1,1
	c0,24.2-16.9,47-44,59.4C6.5,74.6,6.4,74.6,6.2,74.6z"/>
<path class="st0" d="M41.2,82.5c-0.6,0-1-0.4-1-1V44.2c0-0.6,0.4-1,1-1s1,0.4,1,1v37.3C42.2,82.1,41.7,82.5,41.2,82.5z"/>
<path class="st0" d="M33.4,82.5c-0.6,0-1-0.4-1-1V54.4c0-0.6,0.4-1,1-1s1,0.4,1,1v27.1C34.4,82.1,33.9,82.5,33.4,82.5z"/>
<path class="st0" d="M25.5,82.5c-0.6,0-1-0.4-1-1V61.8c0-0.6,0.4-1,1-1s1,0.4,1,1v19.8C26.5,82.1,26.1,82.5,25.5,82.5z"/>
<path class="st0" d="M17.7,82.5c-0.6,0-1-0.4-1-1V67.4c0-0.6,0.4-1,1-1s1,0.4,1,1v14.1C18.7,82.1,18.3,82.5,17.7,82.5z"/>
<path class="st0" d="M121.8,74.6c-0.1,0-0.3,0-0.4-0.1c-27.2-12.4-44-35.2-44-59.4c0-0.6,0.4-1,1-1s1,0.4,1,1
	c0,23.4,16.4,45.5,42.9,57.5c0.5,0.2,0.7,0.8,0.5,1.3C122.5,74.4,122.2,74.6,121.8,74.6L121.8,74.6z"/>
<path class="st0" d="M86.8,82.5c-0.6,0-1-0.4-1-1V44.2c0-0.6,0.4-1,1-1s1,0.4,1,1v37.3C87.8,82.1,87.4,82.5,86.8,82.5z"/>
<path class="st0" d="M94.6,82.5c-0.6,0-1-0.4-1-1V54.4c0-0.6,0.4-1,1-1s1,0.4,1,1v27.1C95.6,82.1,95.2,82.5,94.6,82.5z"/>
<path class="st0" d="M102.5,82.5c-0.6,0-1-0.4-1-1V61.8c0-0.6,0.4-1,1-1s1,0.4,1,1v19.8C103.5,82.1,103,82.5,102.5,82.5z"/>
<path class="st0" d="M110.3,82.5c-0.6,0-1-0.4-1-1V67.4c0-0.6,0.4-1,1-1s1,0.4,1,1v14.1C111.3,82.1,110.8,82.5,110.3,82.5z"/>
<path class="st0" d="M122.5,119.6H5c-0.6,0-1-0.4-1-1v-5.1c0-0.6,0.4-1,1-1h117.4 M122.5,114.5H6v3.1h116.4"/>
<g>
	<path class="st0" d="M187.5,15.2c0-0.6,0.4-1,1-1h5.3c0.6,0,1,0.4,1,1s-0.4,1-1,1h-5.3C188,16.2,187.5,15.8,187.5,15.2z"/>
	<path class="st0" d="M187.5,34c0-0.6,0.4-1,1-1h5.3c0.6,0,1,0.4,1,1s-0.4,1-1,1h-5.3C188,35,187.5,34.6,187.5,34z"/>
	<path class="st0" d="M187.5,52.8c0-0.6,0.4-1,1-1h5.3c0.6,0,1,0.4,1,1s-0.4,1-1,1h-5.3C188,53.8,187.5,53.4,187.5,52.8z"/>
	<path class="st0" d="M165.2,16.2c-0.6,0-0.9-0.4-0.9-1s0.4-1,1-1h5.2c0.6,0,1,0.4,1,1s-0.4,1-1,1H165.2L165.2,16.2z"/>
	<path class="st0" d="M165.2,35c-0.6,0-0.9-0.4-0.9-1s0.4-1,1-1h5.2c0.6,0,1,0.4,1,1s-0.4,1-1,1H165.2L165.2,35z"/>
	<path class="st0" d="M165.2,53.8c-0.6,0-0.9-0.4-0.9-1s0.4-1,1-1h5.2c0.6,0,1,0.4,1,1s-0.4,1-1,1H165.2L165.2,53.8z"/>
	<path class="st0" d="M187.6,81.6V12.1l0,0c0-2,1.6-3.6,3.6-3.6s3.6,1.6,3.6,3.6v69.4c0,0.6-0.4,1-1,1h-5.3
		C188,82.5,187.6,82.1,187.6,81.6z M192.7,80.5V12.1l0,0c0-0.9-0.7-1.6-1.6-1.6s-1.6,0.7-1.6,1.6v68.4h3.3H192.7z"/>
	<path class="st0" d="M185.5,92.7v-6.1c0-0.6,0.4-1,1-1h9.3c0.6,0,1,0.4,1,1v6.1c0,1.3-1.1,2.4-2.4,2.4h-6.5
		C186.6,95.1,185.5,94,185.5,92.7z M187.6,87.7v5c0,0.2,0.2,0.4,0.4,0.4h6.5c0.2,0,0.4-0.2,0.4-0.4v-5.1L187.6,87.7z"/>
	<path class="st0" d="M185.5,113.2v-5.3c0-1.3,1.1-2.4,2.4-2.4h6.5c1.3,0,2.4,1.1,2.4,2.4v5.3c0,0.6-0.4,1-1,1c-0.6,0-1-0.4-1-1
		v-5.3c0-0.2-0.2-0.4-0.4-0.4h-6.5c-0.2,0-0.4,0.2-0.4,0.4v5.3c0,0.6-0.4,1-1,1C185.9,114.2,185.5,113.8,185.5,113.2z"/>
	<path class="st0" d="M188.8,107.5c-0.6,0-1-0.5-1-1V94.1c0-0.6,0.4-1,1-1h4.8c0.6,0,1,0.4,1,1v12.4c0,0.6-0.4,1-1,1H188.8
		L188.8,107.5z M192.6,95.1h-2.8v10.4h2.8V95.1z"/>
	<path class="st0" d="M164.6,95.1c-1.4,0-2.5-1.1-2.5-2.4v-6.1c0-0.6,0.4-1,1-1h9.4c0.6,0,1,0.4,1,1v6.1c0,1.3-1.1,2.4-2.4,2.4
		H164.6L164.6,95.1z M164.3,87.7v5c0,0.2,0.2,0.4,0.4,0.4h6.5c0.2,0,0.4-0.2,0.4-0.4v-5.1L164.3,87.7z"/>
	<path class="st0" d="M162.1,113.2v-5.3c0-1.3,1.1-2.4,2.4-2.4h6.5c1.3,0,2.4,1.1,2.4,2.4v5.3c0,0.6-0.4,1-1,1c-0.6,0-1-0.4-1-1
		v-5.3c0-0.2-0.2-0.4-0.4-0.4h-6.5c-0.2,0-0.4,0.2-0.4,0.4v5.3c0,0.6-0.4,1-1,1C162.6,114.2,162.1,113.8,162.1,113.2z"/>
	<path class="st0" d="M165.4,107.5c-0.5,0-1-0.5-1-1V94.1c0-0.6,0.4-1,1-1h4.8c0.6,0,1,0.4,1,1v12.4c0,0.6-0.4,1-1,1H165.4
		L165.4,107.5z M169.2,95.1h-2.8v10.4h2.8V95.1z"/>
	<path class="st0" d="M164.3,81.6V12.1c0-0.1,0-0.3,0-0.4c0.1-2,1.8-3.5,3.8-3.4s3.5,1.8,3.4,3.8v69.4c0,0.6-0.4,1-1,1h-5.3
		C164.6,82.5,164.2,82.1,164.3,81.6z M169.5,80.5V12.1c0-0.1,0-0.2,0-0.3c-0.1-0.9-0.9-1.6-1.8-1.5c-0.9,0.1-1.6,0.9-1.5,1.8v68.4
		h3.2H169.5z"/>
	<path class="st0" d="M169.4,23.5v-8.3c0-0.6,0.4-1,1-1h18.1c0.6,0,1,0.4,1,1v8.3c0,0.2-0.1,0.4-0.2,0.6c-0.3,0.5-1,0.5-1.4,0.2
		c-2.2-1.7-4.8-2.7-7.6-2.7h-1.7c-2.8,0-5.4,1-7.6,2.7c-0.2,0.1-0.4,0.2-0.6,0.2C169.9,24.5,169.4,24,169.4,23.5z M187.5,21.5v-5.4
		h-16.1v5.4c2.2-1.3,4.7-2,7.2-2h1.7C182.9,19.6,185.4,20.3,187.5,21.5z"/>
	<path class="st0" d="M170.4,43.3c-0.5,0-1-0.4-1-1V34c0-0.6,0.4-1,1-1h18.1c0.6,0,1,0.4,1,1v8.3c0,0.2-0.1,0.4-0.2,0.6
		c-0.3,0.5-1,0.5-1.4,0.2c-2.2-1.7-4.8-2.7-7.6-2.7h-1.7c-2.8,0-5.4,1-7.6,2.7C170.8,43.2,170.6,43.3,170.4,43.3L170.4,43.3z
		 M187.5,40.4V35h-16.1v5.4c2.2-1.3,4.7-2,7.2-2h1.7C182.9,38.4,185.4,39.1,187.5,40.4z"/>
	<path class="st0" d="M169.4,61.2v-8.3c0-0.6,0.4-1,1-1h18.1c0.6,0,1,0.4,1,1v8.3c0,0.2-0.1,0.4-0.2,0.6c-0.3,0.5-1,0.5-1.4,0.2
		c-2.2-1.7-4.8-2.7-7.6-2.7h-1.7c-2.8,0-5.4,1-7.6,2.7c-0.2,0.1-0.4,0.2-0.6,0.2C169.9,62.2,169.4,61.7,169.4,61.2z M180.3,57.2
		c2.6,0.1,5.1,0.8,7.2,2v-5.4h-16.1v5.4c2.2-1.3,4.7-2,7.2-2H180.3L180.3,57.2z"/>
	<path class="st0" d="M187.5,15.2c0-0.6,0.4-1,1-1h5.3c0.6,0,1,0.4,1,1s-0.4,1-1,1h-5.3C188,16.2,187.5,15.8,187.5,15.2z"/>
	<path class="st0" d="M187.5,34c0-0.6,0.4-1,1-1h5.3c0.6,0,1,0.4,1,1s-0.4,1-1,1h-5.3C188,35,187.5,34.6,187.5,34z"/>
	<path class="st0" d="M187.5,52.8c0-0.6,0.4-1,1-1h5.3c0.6,0,1,0.4,1,1s-0.4,1-1,1h-5.3C188,53.8,187.5,53.4,187.5,52.8z"/>
	<path class="st0" d="M165.2,16.2c-0.6,0-0.9-0.4-0.9-1s0.4-1,1-1h5.2c0.6,0,1,0.4,1,1s-0.4,1-1,1H165.2L165.2,16.2z"/>
	<path class="st0" d="M165.2,35c-0.6,0-0.9-0.4-0.9-1s0.4-1,1-1h5.2c0.6,0,1,0.4,1,1s-0.4,1-1,1H165.2L165.2,35z"/>
	<path class="st0" d="M165.2,53.8c-0.6,0-0.9-0.4-0.9-1s0.4-1,1-1h5.2c0.6,0,1,0.4,1,1s-0.4,1-1,1H165.2L165.2,53.8z"/>
	<path class="st0" d="M120.8,81.5c0-0.6,0.4-1,1-1h115.5c0.6,0,1,0.4,1,1s-0.4,1-1,1H121.7C121.2,82.5,120.8,82.1,120.8,81.5z"/>
	<path class="st0" d="M120.8,86.6c0-0.6,0.4-1,1-1h115.5c0.6,0,1,0.4,1,1s-0.4,1-1,1H121.7C121.2,87.6,120.8,87.2,120.8,86.6z"/>
	<path class="st0" d="M236.8,74.6c-27.1-12.4-44-35.2-44-59.4c0-0.6,0.4-1,1-1c0.6,0,1,0.4,1,1c0,23.4,16.4,45.4,42.9,57.5
		c0.4,0.1,0.6,0.5,0.6,0.9c0,0.6-0.4,1-1,1C237.1,74.6,237,74.6,236.8,74.6z"/>
	<path class="st0" d="M201.3,81.5V44.2c0-0.6,0.4-1,1-1c0.6,0,1,0.4,1,1v37.3c0,0.6-0.4,1-1,1C201.8,82.5,201.3,82.1,201.3,81.5z"/>
	<path class="st0" d="M209.1,81.5V54.4c0-0.6,0.4-1,1-1c0.6,0,1,0.4,1,1v27.1c0,0.6-0.4,1-1,1C209.6,82.5,209.1,82.1,209.1,81.5z"/>
	<path class="st0" d="M217,81.6V61.8c0-0.6,0.4-1,1-1c0.6,0,1,0.4,1,1v19.7c0,0.6-0.4,1-1,1C217.4,82.5,217,82.1,217,81.6z"/>
	<path class="st0" d="M224.8,81.5V67.4c0-0.6,0.4-1,1-1s1,0.4,1,1v14.1c0,0.6-0.4,1-1,1C225.2,82.5,224.8,82.1,224.8,81.5z"/>
	<path class="st0" d="M121.7,74.6c-0.4,0-0.7-0.2-1-0.7c-0.2-0.5,0-1.1,0.5-1.3c26.5-12,42.9-34.1,42.9-57.5c0-0.6,0.4-1,1-1
		c0.6,0,1,0.4,1,1c0,24.2-16.8,47-44,59.4C122,74.6,121.8,74.6,121.7,74.6L121.7,74.6z"/>
	<path class="st0" d="M155.7,81.5V44.2c0-0.6,0.4-1,1-1c0.6,0,1,0.4,1,1v37.3c0,0.6-0.4,1-1,1C156.1,82.5,155.7,82.1,155.7,81.5z"/>
	<path class="st0" d="M147.9,81.5V54.4c0-0.6,0.4-1,1-1c0.6,0,1,0.4,1,1v27.1c0,0.6-0.4,1-1,1C148.3,82.5,147.9,82.1,147.9,81.5z"/>
	<path class="st0" d="M140,81.6V61.8c0-0.6,0.4-1,1-1c0.6,0,1,0.4,1,1v19.7c0,0.6-0.4,1-1,1C140.5,82.5,140,82.1,140,81.6z"/>
	<path class="st0" d="M132.2,81.5V67.4c0-0.6,0.4-1,1-1c0.6,0,1,0.4,1,1v14.1c0,0.6-0.4,1-1,1C132.7,82.5,132.2,82.1,132.2,81.5z"/>
	<path class="st0" d="M122.5,112.5h116c0.6,0,1,0.4,1,1v5.1c0,0.6-0.4,1-1,1h-116 M122.5,117.6h115v-3.1h-115"/>
</g>
</svg>
