<?xml version="1.0" encoding="utf-8"?>
<!-- Generator: Adobe Illustrator 23.0.0, SVG Export Plug-In . SVG Version: 6.00 Build 0)  -->
<svg version="1.1" id="Layer_1" xmlns="http://www.w3.org/2000/svg" xmlns:xlink="http://www.w3.org/1999/xlink" x="0px" y="0px"
	 viewBox="0 0 60 48" style="enable-background:new 0 0 60 48;" xml:space="preserve">
<title>Artboard 36</title>
<path d="M56.5,23.1c-0.1-0.1-3-3.5-7.7-6.8C42.5,11.9,36,9.5,30,9.5c-6,0-12.5,2.4-18.8,6.8c-4.7,3.4-7.6,6.7-7.7,6.8
	c-0.4,0.5-0.4,1.2,0,1.7c0.1,0.1,3,3.5,7.7,6.8c6.3,4.5,12.7,6.8,18.8,6.8s12.5-2.4,18.8-6.8c4.7-3.4,7.6-6.7,7.7-6.8
	C56.9,24.4,56.9,23.6,56.5,23.1z M12.8,30.3C10.5,28.6,7.5,26,5.5,24c2-2,5-4.7,7.3-6.3c3.2-2.3,7.9-4.8,13.2-5.8
	c-0.3,0.1-0.7,0.3-1,0.5c-4.5,1.9-7.8,6.4-7.8,11.6c0,5.7,3.8,10.5,9,12c0,0,0.1,0,0.1,0.1C21.1,35.1,16.1,32.6,12.8,30.3z
	 M19.3,23.9c0-5.9,4.8-10.7,10.7-10.7c5.9,0,10.7,4.8,10.7,10.7S35.9,34.7,30,34.7C24.1,34.7,19.3,29.9,19.3,23.9z M47.5,30
	c-3.2,2.3-8.2,5.1-13.5,6.1c0.9-0.4,1.7-0.9,2.5-1.5c3.5-2.2,5.9-6.1,5.9-10.6c0-5.1-3.1-9.5-7.5-11.5c-0.4-0.2-0.8-0.4-1.1-0.6
	c5.3,1,10.2,3.6,13.4,6c2.3,1.7,5.2,3.8,7.8,6.2C52.7,26.3,47.5,30,47.5,30z"/>
<path d="M30,18.9c-2.8,0-5.1,2.3-5.1,5.1c0,2.8,2.3,5.1,5.1,5.1c2.8,0,5.1-2.3,5.1-5.1C35.1,21.2,32.8,18.9,30,18.9z M30,27.2
	c-1.8,0-3.3-1.5-3.3-3.3s1.5-3.3,3.3-3.3s3.3,1.5,3.3,3.3S31.8,27.2,30,27.2z"/>
</svg>
