<?xml version="1.0" encoding="utf-8"?>
<!-- Generator: Adobe Illustrator 23.0.0, SVG Export Plug-In . SVG Version: 6.00 Build 0)  -->
<svg version="1.1" id="Layer_1" xmlns="http://www.w3.org/2000/svg" xmlns:xlink="http://www.w3.org/1999/xlink" x="0px" y="0px"
	 viewBox="0 0 48 48" style="enable-background:new 0 0 48 48;" xml:space="preserve">
<g>
	<path d="M8.4,9.6h31.1c3.6,0,6.5,2.9,6.5,6.4v15.9c0,3.6-2.9,6.5-6.5,6.5H8.4c-3.4,0-6.4-2.9-6.4-6.5V16C2,12.6,4.9,9.6,8.4,9.6z
		 M39.5,11.5H8.4c-2.1,0-4.6,2.4-4.6,4.5v15.9c0,2.2,2.5,4.5,4.6,4.5h31.1c2.2,0,4.7-2.3,4.7-4.5V16C44.2,13.9,41.7,11.5,39.5,11.5z
		"/>
	<path d="M29.1,23.9l-8.6-4.8v10L29.1,23.9z M30.7,25.3l-9.6,5.4c-1,0.6-2.3-0.1-2.3-1.3V18.5c0-1.2,1.3-2,2.3-1.3l9.6,5.5
		C31.7,23.3,31.7,24.7,30.7,25.3z"/>
</g>
</svg>
